# xmcd
#
# Track frame offsets:
#	150
#	21479
#	85799
#	105828
#	140210
#	200648
#	323898
#
# Disc length: 4722 seconds
#
# Revision: 1
# Processed by: cddbd v1.5.2PL0 Copyright (c) Steve Scherf et al.
# Submitted via: audiograbber 1.83.01
#
DISCID=5e127007
DTITLE=Grateful Dead - 72-07-18A Roosevelt Stadium, Jersey City NJ
DYEAR=1900
DGENRE=
TTITLE0=Greatest Story Ever Told
TTITLE1=Playing In The Band
TTITLE2=Brown Eyed Women
TTITLE3=Tennessee Jed
TTITLE4=Truckin'
TTITLE5=Dark Star
TTITLE6=Comes A Time
EXTD=
EXTT0=
EXTT1=
EXTT2=
EXTT3=
EXTT4=
EXTT5=
EXTT6=
PLAYORDER=
